<svg xmlns="http://www.w3.org/2000/svg" width="22.228" height="23.008" viewBox="0 0 22.228 23.008">
  <g id="Notes_Icon" data-name="Notes Icon" transform="translate(-784.39 -719.379)">
    <g id="Group_191" data-name="Group 191" transform="translate(784.64 719.629)">
      <path id="Path_148" data-name="Path 148" d="M800.277,742.137h-15.29a.347.347,0,0,1-.347-.347V719.976a.347.347,0,0,1,.347-.347h11.464a.347.347,0,0,1,.252.108l3.825,4.031a.346.346,0,0,1,.1.239v4.9a.347.347,0,1,1-.693,0v-4.761l-3.628-3.823H785.333v21.122h14.6l.013-6.531a.347.347,0,1,1,.693,0l-.013,6.877A.347.347,0,0,1,800.277,742.137Z" transform="translate(-784.64 -719.629)" fill="#9f6634" stroke="#9f6634" stroke-width="0.5"/>
    </g>
    <g id="Group_192" data-name="Group 192" transform="translate(796.104 719.629)">
      <path id="Path_149" data-name="Path 149" d="M854.969,724.275h-3.826a.346.346,0,0,1-.346-.347v-3.953a.347.347,0,1,1,.693,0v3.606h3.479a.347.347,0,1,1,0,.693Z" transform="translate(-850.797 -719.629)" fill="#9f6634" stroke="#9f6634" stroke-width="0.5"/>
    </g>
    <g id="Group_193" data-name="Group 193" transform="translate(787.207 727.631)">
      <path id="Path_150" data-name="Path 150" d="M805.561,766.5H799.8a.347.347,0,0,1,0-.693h5.76a.347.347,0,0,1,0,.693Z" transform="translate(-799.454 -765.806)" fill="#9f6634" stroke="#9f6634" stroke-width="0.25"/>
    </g>
    <g id="Group_194" data-name="Group 194" transform="translate(787.207 734.316)">
      <path id="Path_151" data-name="Path 151" d="M804.962,805.074H799.8a.347.347,0,0,1,0-.693h5.161a.347.347,0,1,1,0,.693Z" transform="translate(-799.454 -804.381)" fill="#9f6634" stroke="#9f6634" stroke-width="0.25"/>
    </g>
    <g id="Group_195" data-name="Group 195" transform="translate(787.207 736.6)">
      <path id="Path_152" data-name="Path 152" d="M804.314,818.254H799.8a.347.347,0,0,1,0-.693h4.513a.347.347,0,0,1,0,.693Z" transform="translate(-799.454 -817.561)" fill="#9f6634" stroke="#9f6634" stroke-width="0.25"/>
    </g>
    <g id="Group_196" data-name="Group 196" transform="translate(787.207 732.194)">
      <path id="Path_153" data-name="Path 153" d="M806.53,792.831H799.8a.347.347,0,0,1,0-.693h6.729a.347.347,0,0,1,0,.693Z" transform="translate(-799.454 -792.138)" fill="#9f6634" stroke="#9f6634" stroke-width="0.25"/>
    </g>
    <g id="Group_197" data-name="Group 197" transform="translate(787.207 729.913)">
      <path id="Path_154" data-name="Path 154" d="M808.689,779.665H799.8a.347.347,0,0,1,0-.693h8.888a.347.347,0,0,1,0,.693Z" transform="translate(-799.454 -778.972)" fill="#9f6634" stroke="#9f6634" stroke-width="0.25"/>
    </g>
    <g id="Group_201" data-name="Group 201" transform="translate(794.185 725.678)">
      <g id="Group_198" data-name="Group 198" transform="translate(0 0)">
        <path id="Path_155" data-name="Path 155" d="M851.388,755.344a2.048,2.048,0,0,0-1.651-.809h-.013a1.891,1.891,0,0,0-1.218.557c-.26.255-.513.522-.758.78l-.312.327c-2.032,2.119-4.094,4.263-6.126,6.373a3.607,3.607,0,0,0-.879,1.482c-.2.648-.549,1.986-.7,2.558l0,.014,0,.007a.365.365,0,0,0,.164.391.357.357,0,0,0,.1.044.379.379,0,0,0,.178,0l1.222-.323a6.672,6.672,0,0,0,3.1-1.675l.012-.012c1.333-1.478,2.747-2.932,4.114-4.337.558-.574,1.136-1.167,1.7-1.754.109-.113.22-.225.331-.336.26-.261.528-.531.774-.82A1.788,1.788,0,0,0,851.388,755.344Zm-11.166,11.232c.042-.163.1-.369.157-.6a1.659,1.659,0,0,1,.44.438Zm1.066-.281a2.125,2.125,0,0,0-.785-.782c.132-.492.273-1,.371-1.321h0a3.121,3.121,0,0,1,.227-.551l2,1.92A6.2,6.2,0,0,1,841.288,766.295Zm7-5.9c-1.368,1.406-2.783,2.86-4.121,4.343a6.221,6.221,0,0,1-.673.555l-2.144-2.06a3.118,3.118,0,0,1,.289-.34c2.034-2.111,4.1-4.256,6.128-6.375l.314-.329.014-.015,2.221,2.134c-.11.111-.221.222-.33.335C849.426,759.233,848.849,759.826,848.291,760.4Zm2.793-2.9-.006.007c-.138.162-.285.319-.434.473l-2.226-2.139c.136-.141.274-.282.415-.42a1.43,1.43,0,0,1,.915-.422,1.582,1.582,0,0,1,1.278.636.224.224,0,0,0,.022.025A1.326,1.326,0,0,1,851.085,757.5Z" transform="translate(-839.718 -754.535)" fill="#9f6634" stroke="#9f6634" stroke-width="0.3"/>
      </g>
      <g id="Group_199" data-name="Group 199" transform="translate(3.84 3.864)">
        <path id="Path_156" data-name="Path 156" d="M867.213,776.9a.232.232,0,0,0-.328.006l-4.942,5.143a.232.232,0,1,0,.335.321l4.942-5.143A.232.232,0,0,0,867.213,776.9Z" transform="translate(-861.879 -776.834)" fill="#9f6634" stroke="#9f6634" stroke-width="0.3"/>
      </g>
      <g id="Group_200" data-name="Group 200" transform="translate(2.947 2.963)">
        <path id="Path_157" data-name="Path 157" d="M861.758,772.426l.39-.4a.232.232,0,1,0-.33-.326l-.39.4c-.463.47-.942.955-1.409,1.436-1.07,1.107-2.156,2.237-3.228,3.358a.232.232,0,0,0,.007.328.229.229,0,0,0,.1.058.232.232,0,0,0,.224-.065c1.072-1.12,2.157-2.25,3.226-3.356C860.817,773.38,861.3,772.9,861.758,772.426Z" transform="translate(-856.726 -771.636)" fill="#9f6634" stroke="#9f6634" stroke-width="0.3"/>
      </g>
    </g>
  </g>
</svg>
