<svg id="Pothi_Sahib_Icon" data-name="Pothi Sahib Icon" xmlns="http://www.w3.org/2000/svg" width="25.692" height="18.987" viewBox="0 0 25.692 18.987">
  <path id="Path_65" data-name="Path 65" d="M322.724,435.539a30.85,30.85,0,0,0-7.622-1.19c-.7-.052-.771.343-.768.891.013,2.262.005,4.525.005,6.787h0q0,3.155,0,6.309c0,1.374,0,1.346,1.33,1.41a27.14,27.14,0,0,1,7.161,1.038c.875.285,1.027.009,1.032-.8.026-4.237-.134-8.476.1-12.71A1.529,1.529,0,0,0,322.724,435.539Zm-5.866,1.731a26.248,26.248,0,0,1,4.956.9c.3.082.727.172.632.572-.12.507-.56.269-.875.194a22.787,22.787,0,0,0-4.684-.818c-.384-.01-1.021.082-1.013-.426C315.885,437.013,316.583,437.444,316.858,437.27Zm-1.057,2.382c.056-.407.471-.334.779-.334a22.538,22.538,0,0,1,5.257.9c.289.078.722.156.614.578s-.52.278-.81.2a30.8,30.8,0,0,0-5.161-.908C316.185,440.053,315.735,440.133,315.8,439.652Zm1.06,3.737a26.649,26.649,0,0,1,4.941.917c.3.087.733.158.643.558-.115.509-.556.271-.872.2a24.864,24.864,0,0,0-4.684-.814c-.385-.016-1.02.092-1.017-.421C315.878,443.148,316.575,443.56,316.862,443.389Zm-1.014-1.653c.011-.544.58-.318.844-.407a28.26,28.26,0,0,1,5.132.933c.293.086.72.152.607.573s-.511.261-.811.188a28.048,28.048,0,0,0-4.876-.856C316.39,442.144,315.837,442.266,315.848,441.736Zm6.614,5.169c-.066.338-.36.292-.722.251a28.931,28.931,0,0,0-5.437-.948c-.227-.023-.477-.082-.479-.364,0-.344.279-.4.542-.391A21.924,21.924,0,0,1,322,446.4C322.242,446.47,322.525,446.581,322.462,446.905Z" transform="translate(-313.266 -433.291)" fill="none"/>
  <path id="Path_66" data-name="Path 66" d="M376.68,446.272c-.437.04-.874.082-1.306.157-1.157.2-2.3.466-3.606.735a.328.328,0,0,1-.36-.3c-.043-.331.242-.421.483-.491a24.032,24.032,0,0,1,3.867-.825,5.28,5.28,0,0,1-.585-.68c-.027-.038-.054-.077-.081-.116-.064-.1-.12-.2-.177-.294-.924.16-1.839.374-2.752.6-.283.071-.621.168-.723-.2s.244-.467.518-.548a24.46,24.46,0,0,1,2.6-.613,5.162,5.162,0,0,1-.292-1.154c-.656.132-1.31.282-1.963.436-.3.07-.7.263-.834-.134-.163-.49.338-.526.644-.62a19.7,19.7,0,0,1,2.116-.515,5.2,5.2,0,0,1,.2-1.251,19.665,19.665,0,0,0-2.347.552c-.371.042-.607.02-.665-.254s.151-.4.374-.469a20.961,20.961,0,0,1,2.985-.723,5.145,5.145,0,0,1,.992-1.366,27.921,27.921,0,0,0-2.8.538c-.339.081-.676.169-.945.237-.317.055-.543,0-.6-.26s.149-.408.372-.475a21.1,21.1,0,0,1,5.246-.964,5.168,5.168,0,0,1,2.48-.569c0-.445.009-.89.018-1.334.018-.846-.242-1.164-1.1-1.042-.722.1-1.459.1-2.187.168a22.011,22.011,0,0,0-5.4,1.132,1.066,1.066,0,0,0-.836,1.109q.019,6.732,0,13.464c0,.585.154.821.786.616a27.277,27.277,0,0,1,7.718-1.1c.808-.023,1.028-.316,1.015-1.078q-.014-.8-.018-1.594A5.262,5.262,0,0,1,376.68,446.272Z" transform="translate(-358.3 -433.258)" fill="none"/>
  <g id="Group_80" data-name="Group 80" transform="translate(0 0)">
    <path id="Path_67" data-name="Path 67" d="M322.724,435.539a30.85,30.85,0,0,0-7.622-1.19c-.7-.052-.771.343-.768.891.013,2.262.005,4.525.005,6.787h0q0,3.155,0,6.309c0,1.374,0,1.346,1.33,1.41a27.14,27.14,0,0,1,7.161,1.038c.875.285,1.027.009,1.032-.8.026-4.237-.134-8.476.1-12.71A1.529,1.529,0,0,0,322.724,435.539Z" transform="translate(-313.266 -433.291)" fill="none"/>
    <path id="Path_68" data-name="Path 68" d="M329.987,444.222c.013.762-.206,1.055-1.015,1.078a27.275,27.275,0,0,0-7.718,1.1c-.632.205-.788-.032-.786-.616q.015-6.732,0-13.464a1.066,1.066,0,0,1,.836-1.109,22.012,22.012,0,0,1,5.4-1.132c.728-.072,1.465-.064,2.187-.168.854-.122,1.115.2,1.1,1.042-.01.445,0,1.024,0,1.469a6.163,6.163,0,0,0,1.027,0,3.55,3.55,0,0,0-.033-.387A10.585,10.585,0,0,1,331,430.3a.927.927,0,0,1,.03-.219c0-.064,0-.129,0-.192.022-.714-.283-1.074-1.019-1.051-3.256.1-6.5.288-9.543,1.616a1.23,1.23,0,0,1-1.082.007,25.635,25.635,0,0,0-9.542-1.626c-.719-.023-1.062.3-1.07,1.016a3.183,3.183,0,0,1-.02.44c0,.121,0,.242-.007.362a7.619,7.619,0,0,1,0,1.171,2.074,2.074,0,0,1,.019.557c0,.021-.008.039-.011.059a5.054,5.054,0,0,1,.013.738q.008,5.879,0,11.758c0,1.27.1,1.376,1.348,1.386a29.21,29.21,0,0,1,6.057.661h-.361a36.558,36.558,0,0,1,4.257.839c.06,0,.121,0,.181-.007a23.9,23.9,0,0,0,3.547-.831h-.183a29.831,29.831,0,0,1,6.15-.664c1.13-.006,1.254-.132,1.256-1.278q0-1.272,0-2.543a4.334,4.334,0,0,1-1.038,0S329.978,443.691,329.987,444.222Zm-10.548-11.4c-.231,4.234-.071,8.473-.1,12.71,0,.806-.158,1.082-1.032.8a27.139,27.139,0,0,0-7.161-1.038c-1.327-.064-1.329-.037-1.33-1.41q0-3.155,0-6.309h0c0-2.262.007-4.525-.005-6.787,0-.548.07-.943.768-.891a30.849,30.849,0,0,1,7.621,1.19A1.529,1.529,0,0,1,319.439,432.824Z" transform="translate(-308.747 -428.837)" fill="#bebebe"/>
  </g>
  <path id="Path_87" data-name="Path 87" d="M397.618,472.89v0h0Z" transform="translate(-380.619 -464.46)"/>
  <g id="Group_161" data-name="Group 161" transform="translate(18.588 5.113)">
    <line id="Line_75" data-name="Line 75" y2="6.405" transform="translate(3.202)" fill="none" stroke="#bebebe" stroke-linecap="round" stroke-width="1.4"/>
    <line id="Line_76" data-name="Line 76" x1="6.405" transform="translate(0 3.202)" fill="none" stroke="#bebebe" stroke-linecap="round" stroke-width="1.4"/>
  </g>
</svg>
