<svg xmlns="http://www.w3.org/2000/svg" width="27.898" height="26.727" viewBox="0 0 27.898 26.727">
  <path id="Favourites_Icon" data-name="Favourites Icon" d="M566.13-205.65l8.311,1.281a.357.357,0,0,1,.193.611l-6.072,5.817a.357.357,0,0,0-.106.315l1.35,8.3a.357.357,0,0,1-.521.372l-7.409-3.977a.358.358,0,0,0-.332,0l-7.477,3.848a.357.357,0,0,1-.515-.381l1.493-8.275a.357.357,0,0,0-.1-.317l-5.971-5.921a.357.357,0,0,1,.2-.607l8.332-1.137a.357.357,0,0,0,.27-.193l3.787-7.508a.357.357,0,0,1,.64.005l3.656,7.572A.357.357,0,0,0,566.13-205.65Z" transform="translate(-547.857 214.622)" fill="none" stroke="#9f6634" stroke-linecap="round" stroke-width="2"/>
</svg>
