<svg xmlns="http://www.w3.org/2000/svg" width="38.468" height="23.919" viewBox="0 0 38.468 23.919">
  <g id="Reminders_Icon" data-name="Reminders Icon" transform="translate(-437.357 -551.799)">
    <path id="Path_168" data-name="Path 168" d="M517.442,642.31a2.989,2.989,0,0,1-5.979,0" transform="translate(-57.511 -70.381)" fill="none" stroke="#9f6634" stroke-linecap="round" stroke-linejoin="round" stroke-width="1.6"/>
    <path id="Path_169" data-name="Path 169" d="M498.071,571.395H478.747a.382.382,0,0,1-.289-.632l3.238-3.74v-4.1a6.663,6.663,0,0,1,5.2-6.6v-2.068a1.633,1.633,0,0,1,1.483-1.649,1.589,1.589,0,0,1,1.7,1.589v2.129a6.788,6.788,0,0,1,5.2,6.6V567.2l3.088,3.565A.382.382,0,0,1,498.071,571.395Z" transform="translate(-31.544)" fill="none" stroke="#9f6634" stroke-linecap="round" stroke-linejoin="round" stroke-width="1.6"/>
    <path id="Path_170" data-name="Path 170" d="M577.756,587.807a2.99,2.99,0,0,1,.181,5.729" transform="translate(-109.521 -27.621)" fill="none" stroke="#9f6634" stroke-linecap="round" stroke-linejoin="round" stroke-width="1.6"/>
    <path id="Path_171" data-name="Path 171" d="M594.243,581.776a4.347,4.347,0,0,1,.262,8.328" transform="translate(-122.455 -22.89)" fill="none" stroke="#9f6634" stroke-linecap="round" stroke-linejoin="round" stroke-width="1.6"/>
    <path id="Path_172" data-name="Path 172" d="M461.56,593.536a2.991,2.991,0,0,1-.181-5.729" transform="translate(-16.613 -27.621)" fill="none" stroke="#9f6634" stroke-linecap="round" stroke-linejoin="round" stroke-width="1.6"/>
    <path id="Path_173" data-name="Path 173" d="M441.395,590.1a4.347,4.347,0,0,1-.262-8.328" transform="translate(0 -22.89)" fill="none" stroke="#9f6634" stroke-linecap="round" stroke-linejoin="round" stroke-width="1.6"/>
  </g>
</svg>
