<svg xmlns="http://www.w3.org/2000/svg" width="11.886" height="12.14" viewBox="0 0 11.886 12.14">
  <g id="Edit_Icon" data-name="Edit Icon" transform="translate(0.075 0.075)">
    <g id="Group_198" data-name="Group 198" transform="translate(0 0)">
      <path id="Path_155" data-name="Path 155" d="M850.871,755.308a1.958,1.958,0,0,0-1.579-.773h-.013a1.807,1.807,0,0,0-1.164.533c-.249.244-.49.5-.724.745l-.3.313c-1.942,2.025-3.912,4.075-5.855,6.091a3.448,3.448,0,0,0-.84,1.417c-.191.62-.525,1.9-.667,2.444l0,.014,0,.007a.35.35,0,0,0,0,.157.348.348,0,0,0,.255.258.362.362,0,0,0,.17,0l1.168-.308a6.376,6.376,0,0,0,2.965-1.6l.012-.012c1.274-1.413,2.626-2.8,3.932-4.145.534-.548,1.086-1.115,1.625-1.677.1-.108.21-.215.316-.321.248-.25.5-.507.74-.784A1.709,1.709,0,0,0,850.871,755.308ZM840.2,766.043l.15-.569a1.586,1.586,0,0,1,.421.418Zm1.019-.269a2.032,2.032,0,0,0-.75-.748c.126-.47.26-.956.355-1.263h0a3,3,0,0,1,.217-.527l1.91,1.835A5.929,5.929,0,0,1,841.219,765.774Zm6.693-5.635c-1.308,1.344-2.66,2.734-3.939,4.151a5.946,5.946,0,0,1-.643.53l-2.049-1.969a2.963,2.963,0,0,1,.276-.325c1.944-2.018,3.915-4.068,5.857-6.093l.3-.315.013-.014,2.123,2.04c-.106.106-.211.212-.315.32C849,759.025,848.445,759.592,847.912,760.14Zm2.669-2.77-.006.007c-.132.155-.272.3-.415.452l-2.127-2.044c.13-.135.262-.27.4-.4a1.367,1.367,0,0,1,.875-.4,1.512,1.512,0,0,1,1.221.608.234.234,0,0,0,.021.024A1.267,1.267,0,0,1,850.581,757.37Z" transform="translate(-839.718 -754.535)" fill="#f5d43b" stroke="#f5d43b" stroke-width="0.15"/>
    </g>
    <g id="Group_199" data-name="Group 199" transform="translate(3.67 3.693)">
      <path id="Path_156" data-name="Path 156" d="M866.977,776.9a.222.222,0,0,0-.313.006l-4.723,4.916a.222.222,0,1,0,.32.307l4.723-4.916A.222.222,0,0,0,866.977,776.9Z" transform="translate(-861.879 -776.833)" fill="#f5d43b" stroke="#f5d43b" stroke-width="0.15"/>
    </g>
    <g id="Group_200" data-name="Group 200" transform="translate(2.817 2.832)">
      <path id="Path_157" data-name="Path 157" d="M861.535,772.391l.373-.378a.222.222,0,1,0-.316-.311l-.373.378c-.443.449-.9.913-1.347,1.372-1.023,1.058-2.061,2.138-3.085,3.21a.222.222,0,0,0,.007.313.219.219,0,0,0,.1.055.222.222,0,0,0,.214-.062c1.024-1.071,2.062-2.15,3.083-3.208C860.635,773.3,861.093,772.839,861.535,772.391Z" transform="translate(-856.726 -771.636)" fill="#f5d43b" stroke="#f5d43b" stroke-width="0.15"/>
    </g>
  </g>
</svg>
