<svg xmlns="http://www.w3.org/2000/svg" width="126.697" height="147.714" viewBox="0 0 126.697 147.714">
  <g id="Gursevak_Logo" data-name="Gursevak Logo" transform="translate(-31.091 -24.305)">
    <path id="Path_12" data-name="Path 12" d="M85,101.926a16.664,16.664,0,0,1-9.1-4.336,23.031,23.031,0,0,1-5.915-11.248,41.4,41.4,0,0,1-.878-14.163c.043-.409.091-.827.138-1.231a18.821,18.821,0,0,0,.039-6.208A9.862,9.862,0,0,0,65.457,59,10.367,10.367,0,0,0,50.991,73.5a10.72,10.72,0,0,0,13.1,3.125l.305-.156,0,.344c.076,7.866,1.344,13.773,3.991,18.59a19.938,19.938,0,0,0,7.332,7.419,16.048,16.048,0,0,0,8.875,2.544,13.716,13.716,0,0,0,5.157-1.212,11.333,11.333,0,0,0,2.29-1.387,9.839,9.839,0,0,0,1.519-1.641c.026-.036.056-.07.082-.1A21.12,21.12,0,0,1,85,101.926ZM65.051,68.414A5.9,5.9,0,0,1,58.8,73.363c-.167-.012-.333-.033-.5-.059a5.9,5.9,0,0,1-4.949-6.25c.012-.167.031-.334.059-.5a5.895,5.895,0,0,1,11.642,1.861Z" transform="translate(9.882 18.006)" fill="#f5d43b"/>
    <path id="Path_13" data-name="Path 13" d="M117.074,55.968A11.492,11.492,0,0,0,113.1,50.41a14.95,14.95,0,0,0-20.9,4,14.762,14.762,0,0,0-1.717,3.754,1.559,1.559,0,0,0-.314-.475A15.13,15.13,0,0,0,76.2,53.489c-.129.031-.257.062-.384.1a14.661,14.661,0,0,0-9.771,8.422c-.026.062-.051.124-.076.187a14.133,14.133,0,0,0-.708,2.464,50.675,50.675,0,0,0-.7,5.349l-.082,5.045q.023.966.043,1.931c.037,1.685.074,3.427.156,5.144a32.358,32.358,0,0,0,1.886,9.827A17.8,17.8,0,0,0,71.7,99.8a14.27,14.27,0,0,0,9.424,3.387,18.667,18.667,0,0,0,2.755-.212,8.7,8.7,0,0,0,5.928-3.453,9.454,9.454,0,0,0,1.561-7.088,9.349,9.349,0,0,0-3.809-5.9c-.465-.362-.952-.694-1.435-1.013.118.077,1.276-.909,1.417-1.024a16.215,16.215,0,0,0,1.321-1.183,15.1,15.1,0,0,0,2.151-2.724,22.33,22.33,0,0,0,2.677-7.34c.211-1.07.358-3.263.358-3.263H69.5a15.544,15.544,0,0,1,1.086-6.843A9.714,9.714,0,0,1,80,57.662c4.991.138,9.839,3.563,9.578,8.7.441-.015,4.6.091,4.613-.008a33.228,33.228,0,0,1,.252-4.358,15.082,15.082,0,0,1,2.54-5.915c2.1-2.942,6.307-3.893,9.689-3.311,5.172.889,8.607,4.543,10.4,9.285A12.808,12.808,0,0,0,117.074,55.968Zm-30.681,37.5a3.692,3.692,0,0,1-3.182,4.388,8.834,8.834,0,0,1-9.324-3.232,17.317,17.317,0,0,1-3.164-6.183l6.487-.125a13.668,13.668,0,0,1,4.135.266C83.516,89.205,86.065,91.063,86.393,93.464Zm.338-18.375,1.668,0c-.225.009.108.435-.76,2.064a13.874,13.874,0,0,1-3.9,4.351,9.151,9.151,0,0,1-4.466,1.618c-2.312.221-4.7.248-7.01.274-.813.009-1.651.019-2.484.037l-.283-8.342Z" transform="translate(18.313 12.876)" fill="#f5d43b"/>
    <circle id="Ellipse_41" data-name="Ellipse 41" cx="4.37" cy="4.37" r="4.37" transform="translate(141.65 112.547)" fill="#f5d43b"/>
    <circle id="Ellipse_42" data-name="Ellipse 42" cx="4.37" cy="4.37" r="4.37" transform="translate(145.768 103.539)" fill="#f5d43b"/>
    <circle id="Ellipse_43" data-name="Ellipse 43" cx="4.37" cy="4.37" r="4.37" transform="translate(148.259 93.953)" fill="#f5d43b"/>
    <circle id="Ellipse_44" data-name="Ellipse 44" cx="4.37" cy="4.37" r="4.37" transform="translate(149.048 84.08)" fill="#f5d43b"/>
    <circle id="Ellipse_45" data-name="Ellipse 45" cx="4.37" cy="4.37" r="4.37" transform="translate(148.11 74.22)" fill="#f5d43b"/>
    <circle id="Ellipse_46" data-name="Ellipse 46" cx="4.37" cy="4.37" r="4.37" transform="translate(145.475 64.672)" fill="#f5d43b"/>
    <circle id="Ellipse_47" data-name="Ellipse 47" cx="4.37" cy="4.37" r="4.37" transform="translate(141.221 55.728)" fill="#f5d43b"/>
    <circle id="Ellipse_48" data-name="Ellipse 48" cx="4.37" cy="4.37" r="4.37" transform="translate(135.479 47.658)" fill="#f5d43b"/>
    <circle id="Ellipse_49" data-name="Ellipse 49" cx="4.37" cy="4.37" r="4.37" transform="translate(128.423 40.707)" fill="#f5d43b"/>
    <circle id="Ellipse_50" data-name="Ellipse 50" cx="4.37" cy="4.37" r="4.37" transform="translate(120.267 35.087)" fill="#f5d43b"/>
    <circle id="Ellipse_51" data-name="Ellipse 51" cx="4.37" cy="4.37" r="4.37" transform="translate(111.26 30.97)" fill="#f5d43b"/>
    <circle id="Ellipse_52" data-name="Ellipse 52" cx="4.37" cy="4.37" r="4.37" transform="translate(101.674 28.478)" fill="#f5d43b"/>
    <g id="Group_8" data-name="Group 8" transform="translate(31.091 24.305)">
      <circle id="Ellipse_53" data-name="Ellipse 53" cx="6.361" cy="6.361" r="6.361" transform="translate(56.963)" fill="#f5d43b"/>
      <circle id="Ellipse_54" data-name="Ellipse 54" cx="4.37" cy="4.37" r="4.37" transform="translate(7.398 88.242)" fill="#f5d43b"/>
      <circle id="Ellipse_55" data-name="Ellipse 55" cx="4.37" cy="4.37" r="4.37" transform="translate(3.28 79.234)" fill="#f5d43b"/>
      <circle id="Ellipse_56" data-name="Ellipse 56" cx="4.37" cy="4.37" r="4.37" transform="translate(0.789 69.648)" fill="#f5d43b"/>
      <circle id="Ellipse_57" data-name="Ellipse 57" cx="4.37" cy="4.37" r="4.37" transform="translate(0 59.775)" fill="#f5d43b"/>
      <circle id="Ellipse_58" data-name="Ellipse 58" cx="4.37" cy="4.37" r="4.37" transform="translate(0.938 49.915)" fill="#f5d43b"/>
      <circle id="Ellipse_59" data-name="Ellipse 59" cx="4.37" cy="4.37" r="4.37" transform="translate(3.573 40.368)" fill="#f5d43b"/>
      <circle id="Ellipse_60" data-name="Ellipse 60" cx="4.37" cy="4.37" r="4.37" transform="translate(7.827 31.423)" fill="#f5d43b"/>
      <circle id="Ellipse_61" data-name="Ellipse 61" cx="4.37" cy="4.37" r="4.37" transform="translate(13.569 23.353)" fill="#f5d43b"/>
      <circle id="Ellipse_62" data-name="Ellipse 62" cx="4.37" cy="4.37" r="4.37" transform="translate(20.625 16.402)" fill="#f5d43b"/>
      <circle id="Ellipse_63" data-name="Ellipse 63" cx="4.37" cy="4.37" r="4.37" transform="translate(28.781 10.783)" fill="#f5d43b"/>
      <circle id="Ellipse_64" data-name="Ellipse 64" cx="4.37" cy="4.37" r="4.37" transform="translate(37.788 6.665)" fill="#f5d43b"/>
      <circle id="Ellipse_65" data-name="Ellipse 65" cx="4.37" cy="4.37" r="4.37" transform="translate(47.374 4.174)" fill="#f5d43b"/>
    </g>
    <path id="Path_14" data-name="Path 14" d="M65.22,101.372c3.336.8,18.759,4.172,22.244,7.76a5.815,5.815,0,0,0,2.634,1.327,9.5,9.5,0,0,0,4.689.211,6.714,6.714,0,0,0,3.641-1.638c2.631-2.967,18.8-6.855,22.133-7.659,9.731-2.343,22.571-4.845,29.426-4.845h1.88c-1.081-3.184-5.445-6.505-10.569-6.584-10.987-.167-19.421,2.179-32.184,5.726-1.909.531-3.908,1.087-6.022,1.663-4.319,1.178-7.078,2.29-9.294,4.783l-.907,1.022-.907-1.022c-2.216-2.493-4.975-3.6-9.294-4.783-2.114-.576-4.113-1.132-6.022-1.663-12.763-3.548-21.2-5.894-32.184-5.726-5.124.079-9.488,3.4-10.569,6.584h1.88C42.649,96.526,55.489,99.029,65.22,101.372Z" transform="translate(1.549 35.999)" fill="#f5d43b"/>
    <line id="Line_3" data-name="Line 3" y2="0.088" transform="translate(94.439 153.987)" fill="none"/>
    <path id="Path_15" data-name="Path 15" d="M148.548,97.177c-5.325,0-15.93,1.756-27.677,4.584-11.612,2.8-19.115,5.4-20.911,6.648a9.459,9.459,0,0,1-13.67,0c-1.8-1.253-9.3-3.851-20.911-6.648C53.632,98.933,43.027,97.177,37.7,97.177H33.487a5.639,5.639,0,0,0,3.593,4.252l42.2,15.454-16.509,6.538a2.937,2.937,0,0,0-1.649,3.812l1.171,2.956a2.939,2.939,0,0,0,3.812,1.651l27.019-10.123,27.019,10.123a2.939,2.939,0,0,0,3.812-1.651l1.171-2.956a2.937,2.937,0,0,0-1.649-3.812l-16.509-6.538,42.2-15.454a5.639,5.639,0,0,0,3.593-4.252Z" transform="translate(1.314 39.972)" fill="#f5d43b"/>
  </g>
</svg>