<svg xmlns="http://www.w3.org/2000/svg" width="33.555" height="27.3" viewBox="0 0 33.555 27.3">
  <g id="Kamaiyi_Goals_Icon" data-name="Kamaiyi &amp; Goals Icon" transform="translate(-215.987 -505.461)">
    <path id="Path_158" data-name="Path 158" d="M242.621,518.451q.016.328.016.66a12.987,12.987,0,1,1-.692-4.195" transform="translate(0 0)" fill="none" stroke="#9f6634" stroke-linecap="round" stroke-linejoin="round" stroke-width="1.3"/>
    <path id="Path_159" data-name="Path 159" d="M249.755,529.388q.03.369.03.746a9.116,9.116,0,1,1-.311-2.37" transform="translate(-11.022 -11.022)" fill="none" stroke="#9f6634" stroke-linecap="round" stroke-linejoin="round" stroke-width="1.3"/>
    <path id="Path_160" data-name="Path 160" d="M257.076,541.375a5.17,5.17,0,1,1-.32-1.8" transform="translate(-22.264 -22.264)" fill="none" stroke="#9f6634" stroke-linecap="round" stroke-linejoin="round" stroke-width="1.3"/>
    <path id="Path_161" data-name="Path 161" d="M263.706,552.638a1.476,1.476,0,1,1-.235-1.78" transform="translate(-32.79 -32.79)" fill="none" stroke="#9f6634" stroke-linecap="round" stroke-linejoin="round" stroke-width="1.3"/>
    <path id="Path_162" data-name="Path 162" d="M277.981,546.357l-11.451,2.134a.783.783,0,0,1-.913-.626h0a.783.783,0,0,1,.626-.913l11.469-2.137" transform="translate(-36.232 -28.638)" fill="none" stroke="#9f6634" stroke-linecap="round" stroke-linejoin="round" stroke-width="1.3"/>
    <path id="Path_163" data-name="Path 163" d="M318.053,539.921l-6.2,1.11-1.745-1.405,1.149-1.924,6.2-1.11-1.149,1.924Z" transform="translate(-69.161 -22.554)" fill="none" stroke="#9f6634" stroke-linecap="round" stroke-linejoin="round" stroke-width="1.3"/>
  </g>
</svg>
