<svg xmlns="http://www.w3.org/2000/svg" width="28.431" height="22.001" viewBox="0 0 28.431 22.001">
  <g id="Resources_Icon" data-name="Resources Icon" transform="translate(-266.825 -634.695)">
    <g id="Mala" transform="translate(266.825 634.695)">
      <g id="Group_2" data-name="Group 2" transform="translate(0 0)">
        <ellipse id="Ellipse_1" data-name="Ellipse 1" cx="0.744" cy="0.744" rx="0.744" ry="0.744" transform="translate(18.812 15.015)" fill="#f5d43b"/>
        <ellipse id="Ellipse_2" data-name="Ellipse 2" cx="0.744" cy="0.744" rx="0.744" ry="0.744" transform="translate(19.513 13.482)" fill="#f5d43b"/>
        <ellipse id="Ellipse_3" data-name="Ellipse 3" cx="0.744" cy="0.744" rx="0.744" ry="0.744" transform="translate(19.937 11.851)" fill="#f5d43b"/>
        <ellipse id="Ellipse_4" data-name="Ellipse 4" cx="0.744" cy="0.744" rx="0.744" ry="0.744" transform="translate(20.071 10.171)" fill="#f5d43b"/>
        <ellipse id="Ellipse_5" data-name="Ellipse 5" cx="0.744" cy="0.744" rx="0.744" ry="0.744" transform="translate(19.912 8.493)" fill="#f5d43b"/>
        <ellipse id="Ellipse_6" data-name="Ellipse 6" cx="0.744" cy="0.744" rx="0.744" ry="0.744" transform="translate(19.463 6.869)" fill="#f5d43b"/>
        <ellipse id="Ellipse_7" data-name="Ellipse 7" cx="0.744" cy="0.744" rx="0.744" ry="0.744" transform="translate(18.739 5.347)" fill="#f5d43b"/>
        <ellipse id="Ellipse_8" data-name="Ellipse 8" cx="0.744" cy="0.744" rx="0.744" ry="0.744" transform="translate(17.762 3.974)" fill="#f5d43b"/>
        <ellipse id="Ellipse_9" data-name="Ellipse 9" cx="0.744" cy="0.744" rx="0.744" ry="0.744" transform="translate(16.562 2.791)" fill="#f5d43b"/>
        <ellipse id="Ellipse_10" data-name="Ellipse 10" cx="0.744" cy="0.744" rx="0.744" ry="0.744" transform="translate(15.174 1.835)" fill="#f5d43b"/>
        <ellipse id="Ellipse_11" data-name="Ellipse 11" cx="0.744" cy="0.744" rx="0.744" ry="0.744" transform="translate(13.641 1.134)" fill="#f5d43b"/>
        <ellipse id="Ellipse_12" data-name="Ellipse 12" cx="0.744" cy="0.744" rx="0.744" ry="0.744" transform="translate(12.01 0.71)" fill="#f5d43b"/>
        <g id="Group_1" data-name="Group 1">
          <ellipse id="Ellipse_13" data-name="Ellipse 13" cx="1.082" cy="1.082" rx="1.082" ry="1.082" transform="translate(9.693)" fill="#f5d43b"/>
          <ellipse id="Ellipse_14" data-name="Ellipse 14" cx="0.744" cy="0.744" rx="0.744" ry="0.744" transform="translate(1.259 15.015)" fill="#f5d43b"/>
          <ellipse id="Ellipse_15" data-name="Ellipse 15" cx="0.744" cy="0.744" rx="0.744" ry="0.744" transform="translate(0.558 13.482)" fill="#f5d43b"/>
          <ellipse id="Ellipse_16" data-name="Ellipse 16" cx="0.744" cy="0.744" rx="0.744" ry="0.744" transform="translate(0.134 11.851)" fill="#f5d43b"/>
          <ellipse id="Ellipse_17" data-name="Ellipse 17" cx="0.744" cy="0.744" rx="0.744" ry="0.744" transform="translate(0 10.171)" fill="#f5d43b"/>
          <ellipse id="Ellipse_18" data-name="Ellipse 18" cx="0.744" cy="0.744" rx="0.744" ry="0.744" transform="translate(0.16 8.493)" fill="#f5d43b"/>
          <ellipse id="Ellipse_19" data-name="Ellipse 19" cx="0.744" cy="0.744" rx="0.744" ry="0.744" transform="translate(0.608 6.869)" fill="#f5d43b"/>
          <ellipse id="Ellipse_20" data-name="Ellipse 20" cx="0.744" cy="0.744" rx="0.744" ry="0.744" transform="translate(1.332 5.347)" fill="#f5d43b"/>
          <ellipse id="Ellipse_21" data-name="Ellipse 21" cx="0.744" cy="0.744" rx="0.744" ry="0.744" transform="translate(2.309 3.974)" fill="#f5d43b"/>
          <ellipse id="Ellipse_22" data-name="Ellipse 22" cx="0.744" cy="0.744" rx="0.744" ry="0.744" transform="translate(3.509 2.791)" fill="#f5d43b"/>
          <ellipse id="Ellipse_23" data-name="Ellipse 23" cx="0.744" cy="0.744" rx="0.744" ry="0.744" transform="translate(4.897 1.835)" fill="#f5d43b"/>
          <ellipse id="Ellipse_24" data-name="Ellipse 24" cx="0.744" cy="0.744" rx="0.744" ry="0.744" transform="translate(6.43 1.134)" fill="#f5d43b"/>
          <ellipse id="Ellipse_25" data-name="Ellipse 25" cx="0.744" cy="0.744" rx="0.744" ry="0.744" transform="translate(8.061 0.71)" fill="#f5d43b"/>
        </g>
      </g>
      <g id="Group_3" data-name="Group 3" transform="translate(2.331 16.371)">
        <ellipse id="Ellipse_26" data-name="Ellipse 26" cx="0.744" cy="0.744" rx="0.744" ry="0.744" transform="translate(0 0)" fill="#f5d43b"/>
        <ellipse id="Ellipse_27" data-name="Ellipse 27" cx="0.744" cy="0.744" rx="0.744" ry="0.744" transform="translate(1.201 1.183)" fill="#f5d43b"/>
        <ellipse id="Ellipse_28" data-name="Ellipse 28" cx="0.744" cy="0.744" rx="0.744" ry="0.744" transform="translate(2.588 2.139)" fill="#f5d43b"/>
        <ellipse id="Ellipse_29" data-name="Ellipse 29" cx="0.744" cy="0.744" rx="0.744" ry="0.744" transform="translate(4.121 2.84)" fill="#f5d43b"/>
        <ellipse id="Ellipse_30" data-name="Ellipse 30" cx="0.744" cy="0.744" rx="0.744" ry="0.744" transform="translate(5.752 3.263)" fill="#f5d43b"/>
        <ellipse id="Ellipse_31" data-name="Ellipse 31" cx="0.744" cy="0.744" rx="0.744" ry="0.744" transform="translate(15.454 0)" fill="#f5d43b"/>
        <ellipse id="Ellipse_32" data-name="Ellipse 32" cx="0.744" cy="0.744" rx="0.744" ry="0.744" transform="translate(14.253 1.183)" fill="#f5d43b"/>
        <ellipse id="Ellipse_33" data-name="Ellipse 33" cx="0.744" cy="0.744" rx="0.744" ry="0.744" transform="translate(12.865 2.139)" fill="#f5d43b"/>
        <ellipse id="Ellipse_34" data-name="Ellipse 34" cx="0.744" cy="0.744" rx="0.744" ry="0.744" transform="translate(11.332 2.84)" fill="#f5d43b"/>
        <ellipse id="Ellipse_35" data-name="Ellipse 35" cx="0.744" cy="0.744" rx="0.744" ry="0.744" transform="translate(9.701 3.263)" fill="#f5d43b"/>
        <ellipse id="Ellipse_36" data-name="Ellipse 36" cx="0.744" cy="0.744" rx="0.744" ry="0.744" transform="translate(7.727 3.499)" fill="#f5d43b"/>
      </g>
    </g>
    <g id="Pencil" transform="matrix(0.966, -0.259, 0.259, 0.966, 274.061, 639.984)">
      <g id="Group_6" data-name="Group 6" transform="translate(0)">
        <path id="Path_1" data-name="Path 1" d="M1.068,12.982a4.756,4.756,0,0,1,1.2-1.94Q6.7,6.623,11.121,2.195c.511-.511,1.01-1.036,1.538-1.53A2.353,2.353,0,0,1,14.189,0a2.562,2.562,0,0,1,2.063,1.073,2.209,2.209,0,0,1,0,3.06c-.5.559-1.056,1.067-1.587,1.6C11.849,8.546,8.974,11.3,6.254,14.2a9.113,9.113,0,0,1-4.282,2.2l-1.743.423a.185.185,0,0,1-.222-.229C.217,15.839.767,13.895,1.068,12.982Z" fill="#0d1c39" stroke="#f5d43b" stroke-linecap="round" stroke-linejoin="round" stroke-width="0.75"/>
        <path id="Path_2" data-name="Path 2" d="M7.138,0,0,7.138" transform="translate(5.517 5.439)" fill="#0d1c39" stroke="#f5d43b" stroke-linecap="round" stroke-linejoin="round" stroke-width="0.75"/>
        <path id="Path_3" data-name="Path 3" d="M7.256,0C6.391.846,5.52,1.685,4.662,2.538Q2.325,4.861,0,7.2" transform="translate(4.278 4.141)" fill="#0d1c39" stroke="#f5d43b" stroke-linecap="round" stroke-linejoin="round" stroke-width="0.75"/>
        <path id="Path_4" data-name="Path 4" d="M0,0,3.3,3.3" transform="translate(11.947 1.605)" fill="#0d1c39" stroke="#f5d43b" stroke-linecap="round" stroke-linejoin="round" stroke-width="0.75"/>
        <path id="Path_5" data-name="Path 5" d="M0,0,3.245,3.245" transform="translate(1.742 11.87)" fill="#0d1c39" stroke="#f5d43b" stroke-linecap="round" stroke-linejoin="round" stroke-width="0.75"/>
        <path id="Path_6" data-name="Path 6" d="M0,0A2.7,2.7,0,0,1,1.121,1.18" transform="translate(0.562 15.173)" fill="#0d1c39" stroke="#f5d43b" stroke-linecap="round" stroke-linejoin="round" stroke-width="0.75"/>
      </g>
    </g>
  </g>
</svg>
